<?xml version="1.0" standalone="no"?>
<!DOCTYPE svg PUBLIC "-//W3C//DTD SVG 20010904//EN" "http://www.w3.org/TR/2001/REC-SVG-20010904/DTD/svg10.dtd">
<svg version="1.0" xmlns="http://www.w3.org/2000/svg" width="700.000000pt" height="700.000000pt"
  viewBox="0 0 700.000000 700.000000" preserveAspectRatio="xMidYMid meet">
  <metadata>
    Created by potrace 1.14, written by Peter Selinger 2001-2017
  </metadata>
  <g transform="translate(0.000000,700.000000) scale(0.100000,-0.100000)" fill="#000000" stroke="none">
    <path d="M3297 6994 c-1 -1 -47 -4 -102 -8 -111 -7 -139 -10 -270 -32 -250
-42 -503 -112 -717 -199 -113 -47 -426 -200 -518 -255 -55 -33 -301 -199 -310
-210 -3 -3 -52 -44 -110 -91 -98 -81 -227 -204 -345 -330 -292 -313 -546 -719
-689 -1104 -21 -55 -41 -109 -46 -120 -38 -92 -122 -411 -136 -515 -3 -25 -8
-47 -9 -50 -2 -3 -6 -37 -10 -75 -4 -39 -9 -73 -11 -76 -16 -27 -24 -581 -11
-744 7 -79 23 -211 31 -250 2 -11 7 -40 11 -65 46 -282 167 -643 315 -940 122
-243 291 -496 478 -715 88 -103 339 -347 447 -435 121 -98 294 -221 394 -280
101 -59 425 -218 526 -258 167 -66 428 -144 565 -168 14 -3 57 -11 95 -19 39
-7 93 -17 120 -20 28 -4 61 -9 75 -11 148 -24 791 -24 860 0 8 2 33 7 55 10
68 8 178 27 225 37 25 6 56 13 70 15 100 18 337 90 480 146 100 39 426 196
528 255 196 112 446 305 637 492 195 191 300 313 443 516 39 55 76 105 82 112
5 7 10 15 10 17 0 3 19 36 42 73 84 139 210 397 273 563 78 203 162 522 185
700 6 47 13 96 15 110 12 69 19 228 19 440 -1 215 -4 291 -20 435 -8 66 -41
257 -53 303 -6 20 -12 48 -15 62 -45 251 -214 668 -399 985 -313 534 -857
1046 -1392 1309 -294 145 -376 178 -655 264 -118 36 -335 81 -470 98 -19 2
-46 6 -60 9 -67 12 -185 18 -398 19 -128 1 -234 1 -235 0z m433 -505 c41 -4
91 -10 110 -13 19 -2 73 -10 120 -16 301 -41 602 -139 900 -292 228 -117 374
-210 503 -321 52 -44 46 -63 -56 -173 -70 -75 -946 -954 -1195 -1199 l-82 -79
-77 33 c-91 39 -211 79 -268 89 -50 9 -283 9 -350 0 -117 -16 -227 -54 -355
-125 -61 -33 -198 -140 -230 -180 -8 -10 -36 -43 -61 -73 -54 -64 -144 -221
-153 -265 -1 -5 -4 -15 -8 -20 -3 -6 -13 -37 -21 -70 -15 -56 -19 -82 -34
-180 -17 -114 8 -333 53 -451 108 -287 309 -497 585 -610 75 -31 104 -39 234
-63 27 -5 113 -8 190 -7 161 3 248 22 397 86 50 22 100 38 109 35 15 -5 357
-351 649 -655 39 -41 194 -200 343 -354 150 -153 296 -304 324 -335 l53 -56
-38 -33 c-20 -18 -44 -39 -52 -46 -121 -106 -498 -319 -710 -401 -161 -62
-375 -129 -450 -141 -19 -3 -38 -8 -41 -10 -3 -1 -30 -6 -60 -9 -30 -3 -61 -8
-69 -10 -8 -2 -35 -7 -60 -10 -25 -3 -56 -8 -70 -10 -187 -28 -522 -28 -720 1
-140 19 -185 27 -260 41 -47 8 -137 31 -200 50 -63 19 -124 37 -135 40 -11 2
-29 8 -40 13 -11 4 -67 27 -125 50 -336 135 -688 360 -930 595 -288 280 -462
514 -632 850 -142 281 -231 561 -278 870 -30 196 -35 271 -34 500 1 194 5 240
40 475 9 59 35 183 49 230 7 25 26 90 41 145 15 55 39 127 54 160 15 33 30 73
34 88 4 16 32 79 63 140 31 62 64 129 74 149 81 160 244 392 414 585 163 185
457 432 655 548 102 60 431 225 449 225 10 0 21 4 26 8 15 14 260 97 345 117
55 13 211 45 240 49 53 6 132 17 160 22 14 2 59 7 100 10 41 4 77 8 79 10 7 6
327 1 401 -7z m1671 -1533 c41 -47 149 -211 149 -226 0 -5 4 -10 9 -10 12 0
122 -226 174 -360 281 -722 193 -1522 -238 -2180 -75 -115 -187 -261 -205
-268 -6 -2 -430 427 -686 694 -144 149 -572 590 -599 615 -16 16 -33 29 -36
29 -4 0 -19 -18 -34 -41 -44 -63 -142 -148 -209 -180 -87 -43 -206 -59 -309
-43 -115 18 -196 60 -282 147 -107 108 -155 220 -156 365 0 156 50 271 164
378 84 80 173 125 272 139 218 30 368 -37 526 -233 l27 -33 48 41 c27 23 61
54 75 68 134 137 1136 1127 1174 1161 l49 45 25 -34 c14 -18 42 -52 62 -74z" />
  </g>
</svg>
