<svg xmlns="http://www.w3.org/2000/svg" viewBox="0 0 236.656 236.656">
    <g fill="#0071bc">
        <path d="M206.045 87.682c32.726 28.83 27.592 96.299 24.888 134.754-.092 1.421-.688 2.521-1.467 3.346-.229 1.421-1.1 2.796-2.613 3.209-13.613 3.713-31.213.779-44.964-1.696-1.421-.229-1.971-1.329-1.925-2.429-.092-.183-.092-.413-.137-.596-.871-.825-1.421-2.108-1.238-3.804 1.421-15.355 2.2-30.709 1.833-46.156-.183-7.654-.504-15.492-1.375-23.101-1.925-17.188-19.067-35.751-35.155-21.771-22.642 19.617-12.421 70.723-10.679 96.94.137 1.788-1.054 2.75-2.383 2.979-.413.917-1.146 1.742-2.383 2.2-7.379 2.658-16.18 2.521-23.972 2.658-6.967.183-14.621.779-20.855-2.704-.183-.092-.275-.275-.412-.458-1.421-.642-2.521-1.925-2.613-3.896-1.283-47.668-5.958-100.057 3.713-146.946.183-.871.642-1.375 1.238-1.65.321-.229.642-.458 1.054-.596 10.909-3.071 25.576.596 36.714 1.833 3.529.367 7.013.458 8.892 3.85.688 1.283 1.008 2.933 1.1 4.675 17.463-17.6 55.23-16.042 72.739-.641zM59.787 82.869c.596.871.963 1.879.871 2.979-4.629 48.081-5.408 96.207-2.383 144.425.183 3.117-2.658 5.317-5.454 5.5a545.393 545.393 0 01-41.526.779c-3.071-.046-5.363-2.475-5.454-5.454-1.65-48.035-5.821-101.982 5.363-149.1.321-1.329 1.146-2.017 2.108-2.292.046-.137.137-.275.229-.412-.229-.963.183-2.017 1.054-2.521 4.904-3.163 11.917-1.467 17.6-1.512 8.159-.092 16.363-.321 24.476.137 4.353.275 5.362 5.042 3.116 7.471zM37.649 61.693c-1.696.138-3.3 0-4.813-.275-20.9 3.438-28.967-28.417-19.755-44.459C18.398 7.7 28.986.046 39.986 0c11.321 0 20.488 9.9 24.109 19.892 7.151 19.617-5.133 40.38-26.446 41.801z" />
    </g>
</svg>