<svg xmlns="http://www.w3.org/2000/svg" viewBox="0 0 60 60">
  <path fill-rule="evenodd"
    d="M34.1 37.1c-.4.5-.9 1.3-.9 1.3 0-.6-.9-1.3-1.9-1.8-1.3-.6-2.8-1-2.8-1q-.4-.2-1.1-.4h-.2l-.4-.2h-.2l-7.9 13.9h-12s1.9-.4 2.7-1.7l8.9-14.6q-.5-.1-1-.3c-4.9-1.4-10-3.1-12.5-4.7C0 24.5.1 20.2.1 20.2q.5 1.2 1.6 2.2c4.3 4.2 14.7 7.3 22.9 9.7 4.1 1.2 7.7 2.3 9.6 3.2 1 .5-.1 1.8-.1 1.8zm11-31.3 6.8 43.1h-9l-4.1-34L33.1 26l-.4-.2c-1.3-.5-3.7-1.4-6.7-2.6l9.8-17.4zM2.8.1s-3.3 11.8 16 20.4c-1.7-.7-3.5-1.4-5.2-2.2C7.4 15.3-1.5 9.1 2.8.1z"
    fill="#000" />
  <path fill-rule="evenodd"
    d="M38.7 31.5s.4.4.8 1c.6.9 1.3 2.5.5 4.4q-.3.9-1.1 1.9c-3.5 3.9-3.9 4.9-4 7.3 0 0-2.8-3.9.4-7.8 1-1.2 1.4-2.2 1.4-2.8-.1-1.3-1.4-1.8-2.4-2.1q-.2-.1-.4-.1c-1.5-.6-20.2-7.1-20.2-7.1s-2.2-.8-4.8-2.4c-2.3-1.3-4.8-3.1-6.5-5.4q-.1 0-.1-.1-.6-.9-1.1-1.8c-1-1.9-1.4-4.2-.7-6.7q.1-.6.3-1.1s-.1.7.5 2c.9 2 3.4 5.2 10.2 8.7 9 4.6 22.7 9.2 22.7 9.2s2.1.8 3.6 2q.6.5.9.9z"
    fill="#3a83f2" />
</svg>
