<svg version="1.2" xmlns="http://www.w3.org/2000/svg" viewBox="0 0 196 322">
  <style>
    .s0 {
      fill: #7750fe
    }
  </style>
  <g>
    <path fill-rule="evenodd" class="s0"
      d="m195.4 204.4c0 27.6-9.7 54.6-27.2 75.9-17.2 21-41.3 35.7-67.7 41.3l-2.4 0.5-2.3-0.5c-26.4-5.6-50.5-20.3-67.8-41.3-17.5-21.3-27.1-48.3-27.1-75.9 0-12.5 1.9-24.7 5.7-36.5l1.7-5.2 51.3-18.6 2.3-19.2-38.1-3.4v-22.3l57.5-5.2 4.6-51.8c-6.4-4-10.7-11.2-10.7-19.3 0-12.7 10.3-23 22.9-23 12.7 0 22.9 10.3 22.9 23 0 8.1-4.2 15.3-10.7 19.3l4.7 51.8 57.5 5.2v22.3l-38.1 3.4 2.3 19.2 51.3 18.6 1.7 5.2c3.8 11.8 5.7 24 5.7 36.5zm-138.8-35.4l-30.2 10.9c-2.1 8-3.1 16.2-3.1 24.5 0 22.8 8.1 44.2 21.7 61.1zm33.8-146.1c0 4.3 3.4 7.7 7.7 7.7 4.3 0 7.7-3.4 7.7-7.7 0-4.3-3.4-7.7-7.7-7.7-4.3 0-7.7 3.4-7.7 7.7zm40.6 261.6l-18.9-157.5-8.4 0.7v113.9c8.3 2.5 14.4 10.1 14.4 19.3 0 11-8.9 20-20 20-11 0-20-9-20-20 0-9.2 6.1-16.8 14.4-19.3v-113.9l-8.3-0.7-19 157.5c9.8 6.8 20.9 11.9 32.9 14.7 12-2.8 23.2-7.9 32.9-14.7zm-32.9-30.4c-3.7 0-6.8 3-6.8 6.8 0 3.7 3.1 6.7 6.8 6.7 3.7 0 6.8-3 6.8-6.7 0-3.8-3.1-6.8-6.8-6.8zm74.9-49.7c0-8.3-1.1-16.5-3.1-24.5l-30.3-10.9 11.7 96.6c13.6-16.9 21.7-38.3 21.7-61.2z" />
  </g>
</svg>
