<svg version="1.2" viewBox="-5 -5 64 64"  xmlns="http://www.w3.org/2000/svg">
  <defs>
    <linearGradient id="a" gradientUnits="userSpaceOnUse"/>
    <linearGradient id="b" x1="40.6" y1="0" x2="40.6" y2="54.5" href="#a">
      <stop stop-color="#9795f8"/>
      <stop offset="1" stop-color="#4744f0"/>
    </linearGradient>
    <linearGradient id="c" x1="17.5" y1=".7" x2="17.5" y2="55.2" href="#a">
      <stop stop-color="#9795f8"/>
      <stop offset="1" stop-color="#4744f0"/>
    </linearGradient>
    <linearGradient id="d" x1="33.2" y1="-.7" x2="33.2" y2="55" href="#a">
      <stop stop-color="#9795f8"/>
      <stop offset="1" stop-color="#4744f0"/>
    </linearGradient>
  </defs>
  <path d="M37.1 1.9c1.5 1.4 2 3.1 1.9 5-.1 2.8 1.2 4.3 3.1 6.2 1.8 1.8 3.3 3.1 6.2 3.1 2-.1 3.7.4 5.2 2.1 1.7 1.8 2.2 4.5 1.2 6.7q-.2.6-.5 1-.3.5-.7.9-.4.5-.8.8l-1 .6q-1 .5-2.2.7-1.1.1-2.2-.2-1.1-.2-2.1-.9-1-.6-1.6-1.5-.4-.5-.6-1-.3-.5-.4-1-.2-.6-.3-1.1v-1.2c.1-2.8-1.2-4.3-3.1-6.2-1.8-1.8-3.4-3.1-6.2-3-2 0-3.7-.5-5.2-2.2-1.7-1.8-2.2-4.5-1.2-6.7q.3-.8.8-1.4.4-.6 1-1.1.7-.5 1.4-.9.7-.3 1.5-.5.8-.1 1.6-.1.7 0 1.5.3.8.2 1.5.6.6.4 1.2 1" style="fill:url(#b)"/>
  <path d="M11.3 22.4c-.7 2.5-1.1 4.5.4 6.9 1.1 1.8 1.4 3.5.8 5.6q-.2.5-.4.9l-.4.8q-.3.3-.6.7l-.6.6-.8.6q-.3.2-.8.4-.4.2-.8.3-.5.1-.9.1-.6.1-1.1.1-.6-.1-1.1-.2-.6-.1-1.1-.4-.5-.2-1-.5-.9-.6-1.6-1.5-.7-1-1-2-.4-1.1-.3-2.3.1-1.1.5-2.1.2-.6.6-1 .3-.5.6-.9.4-.4.9-.8.4-.3.9-.6c2.5-1.3 3.2-3.2 3.9-5.8.7-2.5 1-4.4-.5-6.8-.5-.9-.9-1.9-1.1-2.9-.1-1 0-2.1.4-3 .3-1 .9-1.9 1.7-2.6.7-.7 1.7-1.2 2.7-1.4q.7-.2 1.5-.3.7 0 1.5.2.8.1 1.5.5.7.3 1.3.8.6.5 1 1.1.5.6.8 1.3.3.7.4 1.5.2.8.1 1.5c0 2.9 1.2 4.4 3.1 6.3 1.8 1.9 3.4 3.2 6.2 3.1 2.1-.1 3.7.5 5.3 2.1 1.6 1.8 2.2 4.5 1.2 6.8q-.3.5-.6.9-.3.5-.7.9l-.8.8q-.5.3-1 .5-1 .5-2.1.7-1.1.1-2.3-.2-1.1-.2-2-.8-1-.6-1.6-1.5-.4-.5-.6-1-.3-.5-.5-1-.1-.6-.2-1.1-.1-.6-.1-1.1c.1-2.9-1.2-4.4-3.1-6.3-4.3-4.2-6.1-3.8-7.6 2.1" style="fill:url(#c)"/>
  <path d="M42.6 36.6q-.6.2-1.3.5-.6.3-1.1.8-.5.4-1 .9-.4.6-.7 1.2c-1.4 2.5-3.3 3.2-5.8 3.9-2.5.6-4.5 1-6.9-.5-1.7-1.1-3.5-1.4-5.6-.8q-.9.3-1.7.8-.7.5-1.3 1.2-.6.7-1 1.6-.3.8-.4 1.7-.1.6 0 1.1 0 .6.2 1.1.1.6.3 1.1.2.5.6.9.6 1 1.5 1.6.9.7 2 1 1.1.4 2.2.3 1.1-.1 2.2-.5.5-.2.9-.5.5-.3.9-.7l.8-.8.6-1c1.3-2.5 3.2-3.1 5.8-3.8 2.5-.7 4.5-1 6.9.5 1.7 1 3.5 1.4 5.6.7 2.3-.7 4.2-2.8 4.4-5.2.5-4.9-3.9-8.2-8.1-7.1" style="fill:url(#d)"/>
</svg>
