<svg xmlns="http://www.w3.org/2000/svg" viewBox="0 0 1200 1200">
  <path d="M1186.3426092 595.2896495c0 326.4678619-264.654493 591.1223549-591.1223549 591.1223549S4.0978994 921.7575114 4.0978994 595.2896495 268.7523924 4.1672946 595.2202543 4.1672946s591.1223549 264.654493 591.1223549 591.1223549ZM639 598c43-128 48-150 34-155-29-11-47 13-80 112-18 54-35 100-37 102-3 3-20-44-39-103-32-106-34-109-63-109-28 0-31 4-61 90-17 50-34 99-38 110-4 14-16-10-43-90-34-102-39-110-64-113-17-2-28 1-28 9 0 7 20 77 45 156 46 143 46 143 80 143 33 0 33 0 66-97 17-54 34-102 37-106 2-5 19 36 37 90 17 55 35 104 38 110 3 5 20 8 36 5 29-4 32-9 80-154zm331 127c0-25-1-25-91-25-91 0-91 0-5-104 59-72 86-113 86-131 0-26 0-26-122-23-123 3-123 3-126 31-3 27-3 27 83 27 87 0 87 0 1 104-47 58-86 114-86 125 0 20 5 21 130 21 130 0 130 0 130-25z" fill="#4bae4e"/>
</svg>
