<svg width="743" height="136" viewBox="138 516 743 136" xmlns="http://www.w3.org/2000/svg">
    <g fill="none" fill-rule="evenodd">
        <g transform="translate(138 516)">
            <rect fill="#D8D8D8" width="231" height="136" rx="8" />
            <path d="M0 18h231v110.005c0 4.416-3.582 7.995-8.002 7.995H8.002C3.582 136 0 132.42 0 128.005V18z" fill="#F4F4F4" />
            <g transform="translate(6 6)">
                <circle fill="#DF4E47" cx="4" cy="4" r="4" />
                <circle fill="#D1A839" cx="16" cy="4" r="4" />
                <circle fill="#34B18F" cx="28" cy="4" r="4" />
            </g>
        </g>
        <g transform="translate(650 516)">
            <rect fill="#D8D8D8" width="231" height="136" rx="8" />
            <path d="M0 18h231v110.005c0 4.416-3.582 7.995-8.002 7.995H8.002C3.582 136 0 132.42 0 128.005V18z" fill="#F4F4F4" />
            <g transform="translate(6 6)">
                <circle fill="#DF4E47" cx="4" cy="4" r="4" />
                <circle fill="#D1A839" cx="16" cy="4" r="4" />
                <circle fill="#34B18F" cx="28" cy="4" r="4" />
            </g>
        </g>
    </g>
</svg>