<svg xmlns="http://www.w3.org/2000/svg" viewBox="0 0 512 512">
    <path d="M423.472 236.786c-.628 0-1.248.034-1.873.048.606-4.96.923-10.008.923-15.131 0-68.231-55.312-123.544-123.544-123.544-42.999 0-80.861 21.971-102.988 55.295-17.892-8.578-37.936-13.385-59.103-13.385C61.287 140.069 0 201.354 0 276.955s61.287 136.886 136.887 136.886h286.584c48.893 0 88.528-39.635 88.528-88.528.001-48.892-39.635-88.527-88.527-88.527z" fill="#8ccfde" />
    <path d="M443.743 393.571H157.158c-75.601 0-136.887-61.287-136.887-136.886 0-32.637 11.428-62.6 30.493-86.123C19.799 195.659 0 233.991 0 276.955c0 75.601 61.287 136.886 136.887 136.886h286.584c29.622 0 55.825-14.563 71.896-36.903-14.534 10.456-32.353 16.633-51.624 16.633zM253.149 189.617c-5.343-22.677-17.562-44.083-34.493-61.768a124.238 124.238 0 00-22.666 25.605c-.615-.295 32.981 17.108 49.354 39.976 2.784 3.884 8.901.839 7.805-3.813z" opacity=".1" />
</svg>