<svg width="793" height="786" viewBox="-9 -9 793 786" xmlns="http://www.w3.org/2000/svg" xmlns:xlink="http://www.w3.org/1999/xlink">
    <defs>
        <path id="a" d="M0 779h779V0H0z" />
        <path d="M389.5 779C174.388 779 0 604.612 0 389.5S174.388 0 389.5 0 779 174.388 779 389.5 604.612 779 389.5 779z" id="d" />
        <radialGradient cx="44.596%" cy="27.344%" fx="44.596%" fy="27.344%" r="33.543%" id="c">
            <stop stop-color="#CEE8FC" offset="0%" />
            <stop stop-color="#88C9F9" offset="100%" />
        </radialGradient>
    </defs>
    <g fill="none" fill-rule="evenodd">
        <g transform="matrix(1 0 0 -1 4.765 771.359)">
            <mask id="b" fill="#fff">
                <use xlink:href="#a" />
            </mask>
            <g mask="url(#b)">
                <path d="M779 389.5C779 174.388 604.612 0 389.5 0S0 174.388 0 389.5 174.388 779 389.5 779 779 604.612 779 389.5" fill="url(#c)" fill-rule="nonzero" />
            </g>
        </g>
        <g transform="matrix(1 0 0 -1 -3.716 770.658)">
            <mask id="e" fill="#fff">
                <use xlink:href="#d" />
            </mask>
            <path d="M166.349 738.427c-43.278 8.115-140.653-52.756-158.224-73.031-17.592-20.276-60.87-124.424-68.984-158.245-8.115-33.8 14.866-178.5 20.275-221.777 5.41-43.278 67.643-119.014 86.577-108.195 18.934 10.82 16.23 31.095 14.866 52.734-1.341 21.64-1.341 25.707-1.341 51.393 0 25.707 12.16 21.638 24.322 33.821 12.183 12.161 9.478 13.524 29.753 26.854 20.298 13.33 9.478 28.585 8.115 36.7-1.342 8.114-13.524 1.363-33.8-1.342-20.276-2.705-13.524 6.751-25.685 12.161-12.183 5.41-17.593 13.524-25.707 37.868-8.115 24.344-9.457 31.095-6.752 51.392 2.705 20.276 12.161 1.342 13.525-20.297 1.341-21.639 20.275-13.524 20.275-27.048 0-13.525 27.049-28.39 33.8-32.459 6.773-4.046 25.707 20.297 32.48 27.049 6.751 6.773 14.866 16.229 17.57 21.639 2.706 5.41 36.506 9.478 43.279 9.478 6.751 0 23.002-20.298 23.002-29.754 0-9.478 8.114-35.163 14.866-50.03 6.773-14.887 21.639-17.591 35.163-28.41 13.524-10.82 20.276-1.343 20.276-1.343s-5.41 22.981-5.41 41.915c0 18.934 16.229 35.163 16.229 35.163s25.707-18.934 27.049-24.344c1.363-5.41 21.66-24.343 23.002-33.8 1.363-9.477 12.182-21.638 32.09-24.343 19.93-2.705 5.778 22.98 12.55 40.573 6.752 17.57 16.23 20.275 28.391 22.98 12.183 2.705 21.639 13.524 29.754 24.344 8.114 10.82 23.002 25.685 21.638 37.868-1.341 12.161-5.41 20.276-10.819 35.163-5.41 14.866 16.23 20.276 25.707 37.868 9.456 17.571 0 0 21.639 5.41 21.617 5.41 12.16 5.41 16.207 13.524 4.068 8.115 6.773 16.23 2.705 31.117-4.046 14.866-18.912 0-33.8 0-14.866 0 5.41 20.276 6.773 36.505 1.342 16.229 20.276 12.182 33.8 13.524 13.525 1.363 17.571-17.57 21.64-21.639 4.046-4.046 45.982 27.049 56.801 41.915 10.82 14.887-9.478 10.82-4.068 17.094 5.41 6.276-32.458 7.552-47.324 9.954-14.888 2.424-52.734 4.068-67.622 13.243-14.866 9.197-71.668 2.272-86.555-5.106-14.866-7.4-24.344.605-31.095 10.819-6.773 10.192-35.185 5.085-43.3 10.82-8.114 5.712-16.229-9.478-27.048-13.525-10.82-4.068-14.866-5.41-28.39 2.705-13.525 8.115 4.046 17.57-14.888 24.344-18.913 6.751-42.997-2.683-93.307 6.751zm178.52-420.606c0-14.866-10.819-31.095 0-45.982 10.82-14.888 20.276-14.888 29.754-16.23 9.456-1.363 36.527 0 14.888 17.571-21.66 17.593-33.822 4.068-31.117 24.366 2.705 20.275-13.524 20.275-13.524 20.275zm151.473 216.39c0-14.867-10.82-31.096 0-45.984 10.82-14.887-21.639-27.048-12.161-28.411 9.456-1.342 50.03 4.068 28.39 21.638-21.639 17.593-5.41 12.183-2.705 32.48 2.705 20.276-13.524 20.276-13.524 20.276zm-98.654-236.676c-10.754-20.276 17.506-12.161 30.922-27.049 13.416-14.866 8.223 0 25.815 6.773 17.571 6.751-14.887 21.617-25.707 29.732-10.82 8.115-21.574 8.417-31.03-9.456zm85.13-11.01c-15.948 8.223-5.41-10.625 0-31.29s25.685-5.042 44.64-15.861c18.935-10.82 20.276 4.068 37.869-1.342 17.57-5.41 24.322-17.592 41.2-16.23 16.857 1.343-12.81 13.525-19.583 21.64-6.751 8.114-21.617 12.16-37.846 11.793-16.23-.39-14.888 17.96-31.117 16.597-16.23-1.342-27.828 10.906-35.163 14.693zM340.062 183.93c-19.432-18.913-8.72-6.752 0-18.934 8.72-12.162-9.565-50.051-10.906-71.668-1.364-21.64 34.643 6.75 48.168 9.456 13.524 2.705 9.543 10.82 20.362 18.934 10.82 8.114 17.852 10.019 29.732-.8 11.858-10.82 27.438-20.84 27.438-33 0-12.183 42.845-32.459 59.074-24.344 16.23 8.115 25.685 24.344 40.573 37.846 14.866 13.525 9.456 39.232 13.524 55.46 4.047 16.23-9.478 13.525-16.229 27.05-6.773 13.524-26.53 25.728-34.644 32.566-8.114 6.838-20.816 9.175-31.636 5.193-10.82-3.981-17.57 0-22.98 10.712-5.41 10.71-14.888 6.989-23.002 5.626-8.115-1.342-40.573-14.888-59.507-24.344-18.934-9.478-27.547-17.679-39.967-29.753z" fill="#5C913B" fill-rule="nonzero" mask="url(#e)" />
        </g>
    </g>
</svg>