<svg width="381" height="381" viewBox="167 296 381 381" xmlns="http://www.w3.org/2000/svg">
    <g fill-rule="nonzero" fill="none">
        <path fill="#06384A" d="M441.852 522.355l-14.142 14.142-60.103-60.103 14.142-14.142z" />
        <path fill="#084B63" d="M381.749 462.251l-14.143 14.142-60.102-60.102 14.142-14.142z" />
        <path fill="#419EBE" d="M222.65 338.508l-21.213 21.213 44.194 44.194 17.677-3.536 3.536-17.677-20.329-34.472zM265.076 296.081l-21.213 21.213 9.723 23.865 34.471 20.33 17.678-3.536 3.535-17.678z" />
        <path fill="#82C8DB" d="M243.863 317.294l-21.213 21.214 44.194 44.194 17.678-3.536 3.535-17.677z" />
        <path fill="#146A8A" d="M311.038 426.896l-16.794-30.936-27.4-13.258-21.213 21.213 44.194 44.194zM353.464 384.47l-44.194-44.195-21.213 21.214 13.258 27.4 30.936 16.794z" />
        <path fill="#419EBE" d="M311.038 426.896l-44.193-44.193 21.214-21.213 44.192 44.193z" />
        <path fill="#146A8A" d="M417.104 532.962l-21.213 21.213 44.194 44.194 17.678-3.535 3.535-17.678-13.258-27.4zM459.53 490.536l-21.213 21.213 16.794 30.936 27.4 13.258 17.678-3.536 3.536-17.677z" />
        <path fill="#2089B0" d="M438.317 511.749l-21.213 21.213 44.194 44.194 17.678-3.535 3.535-17.678z" />
        <path fill="#06384A" d="M505.492 621.35l-9.722-23.865-34.472-20.329-21.213 21.213 44.194 44.195zM547.919 578.924l-44.194-44.194-21.214 21.213 20.33 34.471 23.865 9.723z" />
        <path fill="#146A8A" d="M505.492 621.35l-44.193-44.192 21.213-21.213 44.193 44.193z" />
        <path fill="#06384A" d="M339.322 525.89l-32.527 32.527-21.213-21.213 32.527-32.527zM509.028 356.185l-21.213-21.213H459.53l17.678 31.82 31.82 17.678z" />
        <path fill="#62B3CD" d="M459.53 334.972l-35.355 35.355 24.749 24.749 31.82-17.678 3.535-17.677z" />
        <path fill="#2089B0" d="M473.672 419.824l-24.748-24.75 35.355-35.355 24.749 24.75z" />
        <path fill="#82C8DB" d="M417.104 349.114L289.825 476.393l38.891 38.891 63.639-49.497 63.64-77.782z" />
        <path fill="#419EBE" d="M367.608 554.173l-38.89-38.89 127.277-127.276 38.89 38.89z" />
        <path fill="#06384A" d="M243.355 613.771l-21.214 21.214L208 620.842l21.213-21.213z" />
        <path fill="#146A8A" d="M238.468 594.743l16.977-32.22-17.694-9.323-23.849 45.26 15.819 15.819h14.142v-14.142z" />
        <path fill="#06384A" d="M290.8 606.249l-9.323-17.694-32.22 16.977-5.394-5.395-14.142 14.142 15.819 15.819z" />
        <path d="M167.69 492.462l91.924 91.924 33.588-19.445 19.445-33.588c-39.281-39.281-94.905-52.244-144.957-38.891z" fill="#FFF" />
        <path d="M312.647 531.353l-53.033 53.033 91.924 91.924c13.353-50.052.39-105.676-38.891-144.957z" fill="#A3DDE9" />
    </g>
</svg>