<svg width="139" height="134" viewBox="0 8 139 134" xmlns="http://www.w3.org/2000/svg">
    <g fill="none" fill-rule="evenodd">
        <g transform="translate(0 83)">
            <path d="M138.43 50c0 4.418-4.162 8-9.298 8H9.298C4.163 58 0 54.426 0 50V15h138.43" fill="#BCBCBC" />
            <path d="M138.43 46c0 4.418-4.162 8-9.298 8H9.298C4.163 54 0 50.426 0 46V11h138.43" fill="#D8D8D8" />
            <path fill="#BCBCBC" d="M0 0h138.43v5H0z" />
            <rect fill="#BDBDBD" x="91" y="32" width="32" height="9" rx="4.5" />
            <g transform="translate(13 32)">
                <circle fill="#FFF" cx="28" cy="4" r="4" />
                <circle fill="#5DA3BC" cx="4" cy="4" r="4" />
                <circle fill="#5DBC85" cx="16" cy="4" r="4" />
            </g>
        </g>
        <g transform="translate(0 51)">
            <path fill="#D8D8D8" d="M0 0h138.43v43H0z" />
            <path fill="#BCBCBC" d="M0 38h138.43v5H0z" />
            <rect fill="#BDBDBD" x="91" y="17" width="32" height="9" rx="4.5" />
            <g transform="translate(13 17)">
                <circle fill="#FFF" cx="4" cy="4" r="4" />
                <circle fill="#FFF" cx="28" cy="4" r="4" />
                <circle fill="#5DBC85" cx="16" cy="4" r="4" />
            </g>
        </g>
        <g transform="translate(0 8)">
            <path d="M0 8c0-4.418 3.579-8 7.99-8h122.45a7.99 7.99 0 017.99 8v35H0V8z" fill="#D8D8D8" />
            <path fill="#BCBCBC" d="M0 38h138.43v5H0z" />
            <rect fill="#BDBDBD" x="91" y="17" width="32" height="9" rx="4.5" />
            <g transform="translate(13 18)">
                <circle fill="#FFF" cx="16" cy="4" r="4" />
                <circle fill="#FFF" cx="28" cy="4" r="4" />
                <circle fill="#5DBC85" cx="4" cy="4" r="4" />
            </g>
        </g>
    </g>
</svg>