<svg width="50px" height="50px" viewBox="0 0 60 60" xmlns="http://www.w3.org/2000/svg">
    <g fill="none" fill-rule="evenodd">
        <g transform="translate(4 -5)" stroke="#314E55" stroke-width="2" stroke-linecap="round" stroke-linejoin="round">
            <path d="M43 32v13s-6.553 4-17 4-17-4-17-4V32" fill="#D8D8D8" />
            <path d="M1.78 27.66c-.983-.505-.981-1.322 0-1.825l22.193-11.37c.983-.504 2.579-.503 3.56 0l22.193 11.37c.983.504.981 1.321 0 1.824L27.533 39.03c-.983.504-2.579.503-3.56 0L1.78 27.66z" fill="#D8D8D8" />
            <path d="M39 34v18" />
            <circle fill="#fff" cx="39" cy="55" r="3" />
            <path d="M10 27l4-2M14 29l4-2" />
        </g>
    </g>
</svg>