<svg xml:space="preserve" style="enable-background:new 0 0 512 512" viewBox="0 0 512 512" y="0px" x="0px" xmlns:xlink="http://www.w3.org/1999/xlink" xmlns="http://www.w3.org/2000/svg" id="Layer_1" version="1.1">
  <path d="M449.379,467.081c-15.536-26.845-44.543-44.919-77.791-44.919h-93.203h-6.244h-99.407
	c-33.248,0-62.255,18.075-77.791,44.919C87.295,480.298,82.896,495.63,82.896,512h189.246h6.244h183.041
	C461.427,495.63,457.027,480.298,449.379,467.081z" style="fill:#782cc9"></path>
  <path d="M449.379,467.081c-15.536-26.845-44.543-44.919-77.791-44.919h-93.203h-6.244v44.919V512h6.244
	h183.041C461.427,495.63,457.027,480.298,449.379,467.081z" style="fill:#3d1163"></path>
  <path d="M399.898,327.561l26.3,20.574c27.107-34.65,41.435-76.269,41.435-120.359
	c0-44.61-15.423-88.244-43.429-122.867l-25.961,21L272.143,226.521L399.898,327.561z" style="fill:#1f0f29"></path>
  <path d="M313.043,217.012l148.89-116.309l-10.295-13.158C408.116,31.909,342.692,0,272.142,0l0,0
	C146.546,0,44.366,102.18,44.366,227.777c0,92.285,55.166,171.925,134.252,207.679h93.523h93.886
	c33.056-14.935,62.437-37.827,85.609-67.448l10.295-13.158L313.045,238.542L313.043,217.012z" style="fill:#782cc9"></path>
  <path d="M366.029,435.456c33.056-14.935,62.437-37.827,85.609-67.448l10.295-13.158L313.045,238.542
	l-0.002-21.531l148.89-116.307l-10.295-13.158C408.116,31.909,342.692,0,272.142,0l0,0v435.456H366.029z" style="fill:#3d1163"></path>
  <path d="M371.589,422.161h-93.203h-6.244h-99.407c-33.248,0-62.255,18.075-77.791,44.919h177.198h177.237
	C433.844,440.235,404.836,422.161,371.589,422.161z" style="fill:#B7B9C0"></path>
  <circle r="55.564" cy="227.773" cx="272.161" style="fill:#1f0f29"></circle>
  <path d="M327.726,227.777c0,30.688-24.877,55.564-55.564,55.564c0-31.614,0-97.151,0-111.128
	C302.849,172.212,327.726,197.089,327.726,227.777z" style="fill:#1f0f29"></path>
  <circle r="24.48" cy="227.773" cx="272.161" style="fill:#B7B9C0"></circle>
  <path d="M296.641,227.777c0,13.52-10.96,24.48-24.48,24.48c0-14.934,0-31.595,0-48.959
	C285.681,203.296,296.641,214.256,296.641,227.777z" style="fill:#9B9DA6"></path>
  <path d="M449.379,467.081c-15.536-26.845-44.543-44.919-77.791-44.919h-93.203h-6.244v44.919H449.379z" style="fill:#9B9DA6"></path>
  <g></g>
  <g></g>
  <g></g>
  <g></g>
  <g></g>
  <g></g>
  <g></g>
  <g></g>
  <g></g>
  <g></g>
  <g></g>
  <g></g>
  <g></g>
  <g></g>
  <g></g>
</svg>
