<svg xmlns="http://www.w3.org/2000/svg" viewBox="0 0 486.31 486.31"><path d="M.018 393.086a18.082 18.082 0 0013.434 16.707l183.256 48.558a51.974 51.974 0 0013.273 1.721c5.718 0 11.416-.936 16.878-2.818l247.238-85.063a18.095 18.095 0 0012.185-18.109c-.446-8.084-6.211-14.882-14.107-16.66l-31.558-7.076-203.079 69.875a84.455 84.455 0 01-27.558 4.611 84.85 84.85 0 01-21.681-2.826L43.936 363.752l-31.974 11.52C4.518 377.955-.334 385.176.018 393.086z"/><path d="M.018 305.044c.335 7.91 5.797 14.677 13.449 16.709l183.24 48.556a51.802 51.802 0 0030.151-1.096l247.238-85.064a18.097 18.097 0 0012.185-18.108 18.105 18.105 0 00-14.107-16.662l-31.558-7.076-203.079 69.876a84.474 84.474 0 01-27.558 4.603 84.884 84.884 0 01-21.681-2.817L43.936 275.711l-31.974 11.521C4.518 289.913-.334 297.135.018 305.044z"/><path d="M237.538 224.128a84.475 84.475 0 01-27.558 4.604 84.885 84.885 0 01-21.681-2.818L43.936 187.669 11.962 199.19C4.518 201.872-.334 209.094.018 217.004c.335 7.908 5.797 14.674 13.449 16.707l183.24 48.557a51.931 51.931 0 0013.273 1.722 51.82 51.82 0 0016.878-2.817l247.238-85.065a18.099 18.099 0 0012.185-18.109 18.102 18.102 0 00-14.107-16.66l-31.558-7.078-203.078 69.867z"/><path d="M13.452 145.662l183.256 48.557a51.93 51.93 0 0013.273 1.721c5.718 0 11.416-.937 16.878-2.818l247.238-85.063a18.099 18.099 0 0012.185-18.109 18.104 18.104 0 00-14.107-16.661L268.008 27.494a51.856 51.856 0 00-11.352-1.256 51.812 51.812 0 00-17.582 3.066L11.962 111.14C4.518 113.822-.334 121.044.018 128.954a18.084 18.084 0 0013.434 16.708z"/></svg>