<svg xmlns="http://www.w3.org/2000/svg" viewBox="0 0 511.999 511.999">
    <path d="M340.739 180.882H171.261c-12.375 0-22.407-10.032-22.407-22.407V82.889c0-24.414 19.862-44.274 44.274-44.274H318.87c24.414 0 44.274 19.862 44.274 44.274v75.586c.002 12.375-10.03 22.407-22.405 22.407zm-147.071-44.814H318.33V83.429H193.668v52.639z" fill="#806f71" />
    <path d="M318.332 96.541v39.527H193.668V96.541h-44.814v61.934c0 12.375 10.032 22.407 22.407 22.407h169.477c12.375 0 22.407-10.032 22.407-22.407V96.541h-44.813z" opacity=".1" />
    <path d="M474.725 130.151H37.275c-15.946 0-28.873 12.927-28.873 28.873v285.488c0 15.946 12.927 28.873 28.873 28.873h437.449c15.946 0 28.873-12.927 28.873-28.873V159.024c0-15.946-12.926-28.873-28.872-28.873z" fill="#5b4f51" />
    <path d="M64.42 444.512V159.025c0-15.946 12.927-28.873 28.873-28.873H37.275c-15.946 0-28.873 12.927-28.873 28.873v285.488c0 15.946 12.927 28.873 28.873 28.873h56.018c-15.946-.001-28.873-12.928-28.873-28.874z" opacity=".1" />
    <path d="M474.725 121.748H371.548V82.889c0-29.046-23.63-52.677-52.677-52.677H248.47a8.403 8.403 0 000 16.806h70.399c19.78 0 35.871 16.092 35.871 35.871v38.859h-28.009V83.429a8.403 8.403 0 00-8.403-8.403h-124.66a8.403 8.403 0 00-8.403 8.403v38.319h-28.009V82.889c0-19.78 16.092-35.871 35.871-35.871h21.733a8.403 8.403 0 000-16.806h-21.733c-29.046 0-52.677 23.63-52.677 52.677v38.859H37.275C16.721 121.748 0 138.47 0 159.024v42.691a8.403 8.403 0 0016.806 0v-42.691c0-11.288 9.184-20.47 20.47-20.47h437.449c11.288 0 20.47 9.184 20.47 20.47v285.488c0 11.288-9.184 20.47-20.47 20.47H435.85a8.403 8.403 0 000 16.806h38.874c20.554 0 37.275-16.721 37.275-37.275V159.024c.001-20.554-16.72-37.276-37.274-37.276zm-164.796 0H202.072V91.832h107.857v29.916zM410.643 473.385a8.403 8.403 0 00-8.403-8.403H37.275c-11.288 0-20.47-9.182-20.47-20.47V235.325a8.403 8.403 0 00-16.805 0v209.186c0 20.554 16.721 37.275 37.275 37.275h364.964a8.4 8.4 0 008.404-8.401z" />
</svg>