<?xml version="1.0" standalone="no"?>
<!DOCTYPE svg PUBLIC "-//W3C//DTD SVG 20010904//EN"
 "http://www.w3.org/TR/2001/REC-SVG-20010904/DTD/svg10.dtd">
<svg version="1.0" xmlns="http://www.w3.org/2000/svg"
 width="43.000000pt" height="50.000000pt" viewBox="0 0 43.000000 50.000000"
 preserveAspectRatio="xMidYMid meet">
<metadata>
Created by potrace 1.16, written by Peter Selinger 2001-2019
</metadata>
<g transform="translate(0.000000,50.000000) scale(0.100000,-0.100000)"
fill="#000000" stroke="none">
<path d="M76 457 c-26 -19 -31 -85 -12 -151 15 -52 15 -60 0 -112 -38 -131 18
-202 112 -143 l34 21 34 -21 c94 -59 150 12 112 143 -15 52 -15 60 0 112 38
131 -18 202 -112 143 l-34 -21 -34 21 c-38 24 -74 27 -100 8z m175 -95 c19
-20 43 -54 54 -75 19 -37 19 -37 0 -73 -11 -20 -36 -55 -57 -78 l-38 -41 -38
41 c-21 23 -46 58 -57 78 -19 36 -19 36 0 73 21 41 82 113 95 113 4 0 23 -17
41 -38z"/>
</g>
</svg>
