<svg viewBox="0 0 200 200" height="50px" width="50px" xmlns="http://www.w3.org/2000/svg" version="1.0">
    <path fill="#ff3c02" d="M44.8 10c-5.1 1.5-9.8 5.2-11.5 8.8-1.3 2.9-1.8 8.4-2.2 26.4-.6 22.2-.7 22.7-3 25.2-1.3 1.4-3.2 2.8-4.3 3.2-1.4.4-1.8 1.5-1.8 4.8 0 3.9.3 4.5 2.9 5.6 5.2 2.1 6 5.5 6.1 26.9.1 13.7.6 20.7 1.6 24.2 2.4 8.1 8 11.9 18.6 12.7l6.6.5v-9.1l-4.5-.7c-6.4-.9-7.2-1.4-9-4.8-1.3-2.5-1.6-7.1-1.8-23.7-.2-22.7-.6-24.6-6.7-29.4C34 79.2 33 78 33.6 78c1.6 0 6.5-5.1 7.6-8 .6-1.4 1.2-11.7 1.3-23 .3-25.6.7-26.7 10.1-28.5 1-.2 2.7-.4 3.6-.4 1.3-.1 1.6-1.1 1.6-4.6V9l-5.1.1c-2.9 0-6.4.4-7.9.9zM142 13.4v4.4l4.5.7c2.5.3 5.8 1.7 7.3 3l2.7 2.3.3 20.9c.3 23.2 1.2 27.6 6.4 31.6l3 2.4-2.6 1.6c-5.8 3.8-6.1 5.2-6.6 30l-.5 22.9-2.7 2.3c-1.5 1.3-4.8 2.7-7.3 3l-4.5.7v8.8h4.9c5.8 0 10.5-1.5 14.8-4.7 5.2-3.8 6.3-9.4 6.3-31.6 0-21 .8-24.5 6.1-27.3 2.5-1.3 2.9-2 2.9-5.9 0-3.4-.4-4.5-1.8-4.9-1.1-.4-3-1.8-4.3-3.2-2.4-2.5-2.4-3-3-25.2-.6-24.9-1.2-28.2-6.5-31.9-3.6-2.6-9.6-4.3-15.1-4.3H142v4.4z" />
    <path fill="#a0a6a9" d="M71.2 29.2c-1.7 1.7-1.7 42.9 0 44.6 1.7 1.7 35.9 1.7 37.6 0 1.7-1.7 1.7-42.9 0-44.6-1.7-1.7-35.9-1.7-37.6 0zm36.3 22.3v21h-35l-.3-20c-.1-11 0-20.5.3-21.2.3-1.1 4.3-1.3 17.7-1.1l17.3.3v21z" />
    <path fill="#a0a6a9" d="M76 37c0 .6 5.3 1 14 1s14-.4 14-1-5.3-1-14-1-14 .4-14 1zM76 46c0 .5.5 1 1 1 .6 0 1-.5 1-1 0-.6-.4-1-1-1-.5 0-1 .4-1 1zM79 46c0 .6 4.8 1 12.5 1s12.5-.4 12.5-1-4.8-1-12.5-1-12.5.4-12.5 1zM76 56c0 .5.5 1 1 1 .6 0 1-.5 1-1 0-.6-.4-1-1-1-.5 0-1 .4-1 1zM79 56c0 .6 4.8 1 12.5 1s12.5-.4 12.5-1-4.8-1-12.5-1-12.5.4-12.5 1zM76 66c0 .5.5 1 1 1 .6 0 1-.5 1-1 0-.6-.4-1-1-1-.5 0-1 .4-1 1zM79 66c0 .6 4.8 1 12.5 1s12.5-.4 12.5-1-4.8-1-12.5-1-12.5.4-12.5 1zM115 52c0 .6 2.7 1 6 1h6v52h-6c-3.3 0-6 .4-6 1s3 1 7 1h7V51h-7c-4 0-7 .4-7 1zM71.2 83.2c-1.7 1.7-1.7 42.9 0 44.6 1.7 1.7 35.9 1.7 37.6 0 1.7-1.7 1.7-42.9 0-44.6-1.7-1.7-35.9-1.7-37.6 0zm36.3 22.3v21h-35l-.3-20c-.1-11 0-20.5.3-21.2.3-1.1 4.3-1.3 17.7-1.1l17.3.3v21z" />
    <path fill="#a0a6a9" d="M76 91c0 .6 5.3 1 14 1s14-.4 14-1-5.3-1-14-1-14 .4-14 1zM76 100c0 .5.5 1 1 1 .6 0 1-.5 1-1 0-.6-.4-1-1-1-.5 0-1 .4-1 1zM79 100c0 .6 4.8 1 12.5 1s12.5-.4 12.5-1-4.8-1-12.5-1-12.5.4-12.5 1zM76 110c0 .5.5 1 1 1 .6 0 1-.5 1-1 0-.6-.4-1-1-1-.5 0-1 .4-1 1zM79 110c0 .6 4.8 1 12.5 1s12.5-.4 12.5-1-4.8-1-12.5-1-12.5.4-12.5 1zM76 120c0 .5.5 1 1 1 .6 0 1-.5 1-1 0-.6-.4-1-1-1-.5 0-1 .4-1 1zM79 120c0 .6 4.8 1 12.5 1s12.5-.4 12.5-1-4.8-1-12.5-1-12.5.4-12.5 1z" />
    <path fill="#4f5050" d="M22 170c0 2.7.3 3 3 3h3v17h6v-17h3c2.7 0 3-.3 2.8-2.9l-.2-2.8-8.8-.1-8.8-.1v2.9zM43.6 170.2c.9 1.8 2.8 5 4.1 7 1.5 2.5 2.3 5.3 2.3 8.3 0 4.3.1 4.5 3 4.5 2.8 0 3-.2 3-4.1 0-3 1.2-6.3 4.1-11.5l4-7.4h-3.4c-2.8 0-3.7.6-5.3 3.5-1 1.9-2.1 3.5-2.4 3.5-.4 0-1.4-1.6-2.3-3.5-1.4-3-2.1-3.5-5.2-3.5h-3.6l1.7 3.2zM66 178.5V190h3c2.7 0 3-.3 3-3 0-2.5.4-3 2.5-3 5.1 0 9.5-3.9 9.5-8.5 0-2.7-2.2-6.3-4.7-7.4-1.3-.6-4.8-1.1-7.8-1.1H66v11.5zm11.4-5.9c3.5 1.4 1.1 6.4-3.1 6.4-2 0-2.3-.5-2.3-3.5 0-3.6 1.5-4.4 5.4-2.9zM87.1 178.5L87 190h6.9c4.6 0 7-.4 7.3-1.3 1-2.5-.4-3.7-4.3-3.7-3.2 0-3.9-.3-3.9-2 0-1.6.7-2 3.4-2 1.9 0 3.6-.6 3.9-1.3.8-2.4-.6-3.7-3.9-3.7-2.7 0-3.4-.4-3.4-2s.7-2 3.3-2.1c1.7-.1 3.7-.1 4.3 0 .7.1.9-.9.6-2.4-.4-2.4-.8-2.5-7.2-2.5h-6.8l-.1 11.5z" />
    <path d="M109.6 169.1c-4.1 3.3-5.6 6.9-4.6 11.4 1.6 7.3 9.2 11.3 15.9 8.5 3.8-1.6 7.1-8.2 6.4-12.7-1.2-7.7-11.7-11.9-17.7-7.2zm12.1.9c8.2 5 4.6 19-5 19-5.7 0-10.3-4.1-10.8-9.5-.3-4.4.2-5.8 3.2-8.6 3.7-3.5 7.9-3.8 12.6-.9zM132.2 178.7c.1 6.5.3 9.7.5 7 .4-4.5.5-4.7 3.6-4.7 2.8 0 3.5.6 5.6 4.5 1.3 2.5 2.6 4.4 2.8 4.1.2-.2-.5-2.1-1.6-4.1l-2-3.8 2.9-2.7c6-5.6 2.3-12-6.8-12H132l.2 11.7zm11.9-8.6c1.5 1.5 1.9 2.8 1.4 4.7-.9 3.6-3.3 5.1-8.2 5.2H133v-12h4.5c3.2 0 5.1.6 6.6 2.1zM151.1 178.7c.2 13 .7 11.9 1.1-2.5.2-5 0-9.2-.4-9.2-.5 0-.7 5.3-.7 11.7zM168 172.6l-5.4 5.6-4.3-4.7c-2.4-2.7-4.5-4.6-4.8-4.3-.2.2 1.8 2.6 4.5 5.3l5 4.9 5.5-5.7 5.4-5.8.4 11.3.3 11.3.2-11.8c.1-6.4-.2-11.7-.6-11.7-.5 0-3.3 2.5-6.2 5.6z" />
</svg>