<svg xmlns="http://www.w3.org/2000/svg" viewBox="0 0 512 512" width="50px" height="50px">
    <circle cx="256" cy="256" r="256" fill="#386895" />
    <path d="M510.178 225.445l-83.223-83.223L85.333 357.279l154.178 154.177c5.454.347 10.948.544 16.489.544 141.384 0 256-114.616 256-256a258.74 258.74 0 00-1.822-30.555z" fill="#273b7a" />
    <g fill="#ffc61b">
        <path d="M312.889 271.946H199.111L85.333 328.835v28.444h341.622v-28.444z" />
        <path d="M199.111 271.946L85.333 328.835v28.444H256v-85.333z" />
    </g>
    <path fill="#e2a610" d="M426.955 328.835l-114.066-56.889H256v85.333h170.955z" />
    <path d="M341.333 113.778C273.527 86.195 256 142.222 256 142.222s-17.527-56.027-85.333-28.444-85.621 28.444-85.621 28.444v199.111s17.815-.862 85.621-28.444S256 341.333 256 341.333s17.527-56.027 85.333-28.444 85.621 28.444 85.621 28.444V142.222c.001 0-17.814-.862-85.621-28.444z" fill="#fee187" />
    <path d="M85.045 341.333s17.815-.862 85.621-28.444S256 341.333 256 341.333V142.222s-17.527-56.027-85.333-28.444-85.621 28.444-85.621 28.444v199.111z" fill="#ffedb5" />
    <path d="M426.955 341.333s-17.815-.862-85.621-28.444S256 341.333 256 341.333V142.222s17.527-56.027 85.333-28.444 85.621 28.444 85.621 28.444l.001 199.111z" fill="#fee187" />
</svg>