<svg xmlns="http://www.w3.org/2000/svg" viewBox="0 0 340 340" width="50px" height="50px">
    <path fill="#dedde0" d="M76.429 290L80 340h90v-50zM170 80H61.429L65 130h105z" />
    <path fill="#acabb1" d="M170 290v50h90l3.571-50zM170 80v50h105l3.571-50z" />
    <path d="M170 260c-22.091 0-40-22.386-40-50s17.909-50 40-50v-30H50l10 160h110v-30z" fill="#ffda44" />
    <path d="M170 130v30c22.091 0 40 22.386 40 50s-17.909 50-40 50v30h110l10-160H170z" fill="#ff9811" />
    <path d="M210 210c0-27.614-17.909-50-40-50v100c22.091 0 40-22.386 40-50z" fill="#50412e" />
    <path d="M130 210c0 27.614 17.909 50 40 50V160c-22.091 0-40 22.386-40 50z" fill="#786145" />
    <path fill="#50412e" d="M278.571 80H300V40h-40V0H80v40H40v40h130z" />
</svg>