<svg xmlns="http://www.w3.org/2000/svg" width="50px" height="50px" viewBox="0 0 512 512">
    <path d="M238.934 0C114.715 0 13.654 101.061 13.654 225.28s101.061 225.28 225.28 225.28c11.31 0 20.48-9.17 20.48-20.48s-9.17-20.48-20.48-20.48c-101.635 0-184.32-82.686-184.32-184.32s82.685-184.32 184.32-184.32c11.31 0 20.48-9.17 20.48-20.48S250.244 0 238.934 0z" fill="#64c37d" />
    <path d="M368.968 507.073A20.39 20.39 0 00382.284 512c5.773 0 11.511-2.428 15.561-7.154l34.819-40.638 45.203-.003c11.31 0 20.479-9.171 20.479-20.481 0-11.31-9.171-20.479-20.481-20.479l-131.763.008-14.514-24.19c-5.819-9.698-18.401-12.845-28.099-7.025-9.699 5.819-12.844 18.399-7.025 28.099l20.48 34.133a20.479 20.479 0 0017.562 9.942l44.215-.003-11.981 13.984c-7.358 8.591-6.361 21.52 2.228 28.88z" fill="#77757f" />
    <g fill="#6e76e5">
        <path d="M238.934 81.92c-79.05 0-143.36 64.311-143.36 143.36s64.31 143.36 143.36 143.36 143.36-64.31 143.36-143.36-64.311-143.36-143.36-143.36z" />
        <path d="M138.596 245.76h39.428c1.292 24.83 4.975 48.878 11.233 69.02-25.685-14.314-44.616-39.346-50.661-69.02zM178.024 204.8h-39.428c6.047-29.674 24.976-54.706 50.661-69.02-6.259 20.142-9.942 44.19-11.233 69.02z" />
    </g>
    <g fill="#b3d8f4">
        <path d="M238.934 325.822c-6.61-8.395-17.285-35.622-19.89-80.062h39.782c-2.607 44.44-13.282 71.666-19.892 80.062zM219.044 204.8c2.605-44.44 13.282-71.666 19.89-80.062 6.61 8.395 17.285 35.622 19.89 80.062h-39.78zM288.612 314.78c6.259-20.143 9.941-44.192 11.233-69.02h39.428c-6.048 29.674-24.977 54.706-50.661 69.02zM299.844 204.8c-1.292-24.83-4.974-48.878-11.233-69.02 25.686 14.314 44.615 39.346 50.661 69.02h-39.428z" />
    </g>
    <g fill="#8cb7e8">
        <path d="M238.934 325.822V245.76h-19.89c2.605 44.44 13.28 71.666 19.89 80.062zM138.596 204.8h39.428c1.292-24.83 4.975-48.878 11.233-69.02-25.685 14.314-44.616 39.346-50.661 69.02zM238.934 204.8v-80.062c-6.61 8.395-17.285 35.622-19.89 80.062h19.89zM138.596 245.76c6.047 29.674 24.976 54.706 50.661 69.02-6.259-20.143-9.941-44.192-11.233-69.02h-39.428z" />
    </g>
    <path d="M219.044 245.76h19.89V204.8h-19.89c2.605-44.44 13.282-71.666 19.89-80.062V81.92c-79.05 0-143.36 64.311-143.36 143.36s64.31 143.36 143.36 143.36v-42.818c-6.61-8.396-17.285-35.622-19.89-80.062zm-80.448 0h39.428c1.292 24.83 4.975 48.878 11.233 69.02-25.685-14.314-44.616-39.346-50.661-69.02zm39.428-40.96h-39.428c6.047-29.674 24.976-54.706 50.661-69.02-6.259 20.142-9.942 44.19-11.233 69.02z" fill="#424ede" />
    <path d="M238.934 40.96c11.31 0 20.48-9.17 20.48-20.48S250.244 0 238.934 0C114.805 0 13.804 100.913 13.658 225.01h40.96c.146-101.512 82.772-184.05 184.316-184.05z" fill="#a4e276" />
</svg>